<svg width="16" height="14" viewBox="0 0 16 14" fill="none" xmlns="http://www.w3.org/2000/svg">
<path fill-rule="evenodd" clip-rule="evenodd" d="M15.8813 8.26107L14.5923 9.55107L12.4436 7.40106L13.7326 6.11105C14.0193 5.82441 14.3774 6.11105 14.6639 6.39773L15.595 7.32939C15.8813 7.61606 16.1678 7.9744 15.8813 8.26107ZM9.99263 2.00011H1.99865V12.0001H5.99631V14.0001H1.99865C0.899324 14.0001 0 13.1001 0 12.0001V2.00011C0 0.900092 0.899324 9.15527e-05 1.99865 9.15527e-05H9.99263C11.092 9.15527e-05 11.9913 0.900092 11.9913 2.00011V5.00009L9.99263 7.00012V2.00011ZM13.8761 10.2677L10.1462 14.0011H7.99753V11.8511L11.7272 8.11774L13.8761 10.2677Z" fill="black"/>
</svg>
